<?xml version="1.0" encoding="utf-8"?>
<!-- Generator: Adobe Illustrator 25.1.0, SVG Export Plug-In . SVG Version: 6.00 Build 0)  -->
<svg version="1.1" id="Group_40053" xmlns="http://www.w3.org/2000/svg" xmlns:xlink="http://www.w3.org/1999/xlink" x="0px"
	 y="0px" viewBox="0 0 175.9 175.9" style="enable-background:new 0 0 175.9 175.9;" xml:space="preserve">
<style type="text/css">
	.st0{fill:#FFE0D4;}
	.st1{font-family:'Roboto-Regular';}
	.st2{font-size:10px;}
	.st3{font-size:9.998px;}
	.st4{font-size:10.0011px;}
	.st5{font-size:10.0008px;}
	.st6{font-size:10.0052px;}
	.st7{font-size:9.9914px;}
	.st8{font-size:9.9948px;}
	.st9{font-size:10.0058px;}
	.st10{font-size:10.0055px;}
	.st11{font-size:9.9967px;}
	.st12{font-size:10.0012px;}
	.st13{font-size:9.9988px;}
	.st14{font-size:9.9963px;}
</style>
<circle id="Ellipse_4" class="st0" cx="88" cy="88" r="64.4"/>
<text transform="matrix(0.866 0.5 -0.5 0.866 106.5615 51.5132)" class="st1 st2">L</text>
<text transform="matrix(0.7441 0.6701 -0.6691 0.7431 114.5631 56.8421)" class="st1 st3">I</text>
<text transform="matrix(0.5879 0.8089 -0.8089 0.5879 119.6049 61.7932)" class="st1 st4">V</text>
<text transform="matrix(0.408 0.913 -0.913 0.408 124.5548 69.2534)" class="st1 st2">E</text>
<text transform="matrix(1.274056e-03 1 -1 1.274056e-03 129.1081 85.3337)" class="st1 st2">A</text>
<text transform="matrix(-0.207 0.9779 -0.9779 -0.209 128.8104 93.9456)" class="st1 st5">U</text>
<text transform="matrix(-0.4058 0.9125 -0.9135 -0.4068 126.7291 102.3104)" class="st1 st6">C</text>
<text transform="matrix(-0.5879 0.8089 -0.8089 -0.5879 122.9776 110.0534)" class="st1 st4">T</text>
<text transform="matrix(-0.7446 0.6706 -0.6686 -0.7436 116.495 117.9587)" class="st1 st7">I</text>
<text transform="matrix(-0.8665 0.5013 -0.4993 -0.8665 111.5134 122.206)" class="st1 st8">O</text>
<text transform="matrix(-0.9514 0.3078 -0.3078 -0.9514 104.0799 126.3219)" class="st1 st9">N</text>
<text transform="matrix(-0.9944 -0.1056 0.1056 -0.9944 85.0997 129.3967)" class="st1 st2">•</text>
<text transform="matrix(-0.866 -0.5 0.5 -0.866 69.5581 125.1948)" class="st1 st2">L</text>
<text transform="matrix(-0.7426 -0.6696 0.6686 -0.7436 61.557 119.8561)" class="st1 st10">I</text>
<text transform="matrix(-0.5879 -0.8089 0.8089 -0.5879 56.5136 114.9147)" class="st1 st4">V</text>
<text transform="matrix(-0.4059 -0.9139 0.9139 -0.4059 51.5758 107.4786)" class="st1 st2">E</text>
<text transform="matrix(1.274056e-03 -1 1 1.274056e-03 47.0117 91.3998)" class="st1 st2">A</text>
<text transform="matrix(0.2091 -0.9783 0.9783 0.2071 47.3102 82.7414)" class="st1 st11">U</text>
<text transform="matrix(0.407 -0.9129 0.9139 0.406 49.3891 74.3865)" class="st1 st12">C</text>
<text transform="matrix(0.5879 -0.8089 0.8089 0.5879 53.1407 66.6537)" class="st1 st4">T</text>
<text transform="matrix(0.7431 -0.6701 0.6681 0.7441 59.6239 58.7592)" class="st1 st13">I</text>
<text transform="matrix(0.8665 -0.4993 0.4993 0.8665 64.6048 54.5025)" class="st1 st8">O</text>
<text transform="matrix(0.9513 -0.3081 0.3081 0.9513 72.035 50.376)" class="st1 st14">N</text>
<text transform="matrix(0.9944 0.1056 -0.1056 0.9944 91.0189 47.3099)" class="st1 st2">•</text>
<g>
	<path d="M100.5,99.4c-1.7,1.4-3.8,2.1-6,2.2c-2,0.1-4-0.3-5.9-1c-0.3-0.1-0.3-0.1-0.2-0.5c0.5-0.9,1-1.9,1.3-2.9
		c0.3-1.1,0.1-2-0.9-2.7c-1.2-0.8-2.3-1.6-3.4-2.5c-0.3-0.3-0.6-0.5-0.8-0.8c-1-1-1.8-2.1-2.6-3.2c-0.9-1.2-1.5-2.5-2.1-3.9
		c-0.3-0.7-0.5-1.4-0.6-2.1c-0.1-0.6-0.3-0.9-0.8-1.2c-0.7-0.3-1.5,0.3-1.8,0.9c-0.4,0.9,0.1,2.4,0.4,3.3c1.4,4.2,4.1,7.9,7.7,10.5
		c0.4,0.3,0.9,0.6,1.3,0.9c0.5,0.3,0.5,0.4,0.3,0.9c-0.1,0.2-0.2,0.4-0.3,0.6c-0.3,0.5-0.6,1.1-0.9,1.6c-0.3,0.5-0.3,1.2,0,1.7
		c0.4,0.7,1.3,0.9,2,1.1c0.9,0.3,1.9,0.5,2.8,0.7c0.9,0.1,1.9,0.2,2.8,0.1c1.3-0.1,2.6-0.3,3.9-0.8c1.9-0.8,3.5-2,4.5-3.7
		c0,0,0.1-0.2,0.1-0.3C101.2,98.9,100.8,99.2,100.5,99.4z"/>
	<path d="M104.2,82.5c0-0.1-0.1-0.3-0.2-0.4c0,0,0,0.1,0,0.1c0,0.1,0,0.2,0.1,0.2c0.3,1.2,0.5,2.5,0.4,3.7c-0.1,1.1-0.5,2.1-1.2,2.9
		c-0.7,0.9-1.7,1.4-2.8,1.7c-0.9,0.2-1.8,0.3-2.7,0.2c-1.8-0.2-3.4-0.9-5-1.8c-0.3-0.2-0.7-0.4-1-0.5c-0.6-0.2-1.4,0-1.9,0.5
		s-0.6,1.3-0.3,1.8c0.2,0.4,0.6,0.6,1,0.8c2.1,1.2,4.5,2.2,6.9,2.3c1.7,0.1,3.4-0.3,4.8-1.3c1.9-1.3,2.7-3.3,2.8-5.5
		C105.1,85.7,104.8,84.1,104.2,82.5z"/>
	<path d="M75,93.6c0.1,0,0.1,0,0.2,0c0.1,0,0.3,0,0.4,0c0.2,0.1,0.3,0.2,0.4,0.4c1.3,1.8,2.8,3.5,4.5,4.9c0.3,0.2,0.5,0.4,0.9,0.5
		c0.5,0.1,0.9,0.1,1.3-0.2c0.3-0.3,0.4-0.7,0.3-1.1c-0.1-0.3-0.3-0.5-0.5-0.7c-0.9-0.7-1.7-1.4-2.5-2.3c-0.8-0.9-1.6-1.9-2.3-2.9
		c-0.6-0.8-1.4-1.1-2.4-0.9c-0.5,0.1-1.1,0.3-1.6,0.4c-0.3,0.1-0.5,0.1-0.8,0c-0.5-0.2-0.6-1.1-0.8-1.5c-0.4-1.2-0.6-2.5-0.7-3.8
		c-0.1-1.3,0.1-2.6,0.3-3.9c0-0.2,0.1-0.4,0.1-0.6c-0.1,0.2-0.2,0.4-0.3,0.7c-0.4,1.1-0.7,2.2-0.8,3.4c-0.1,1.2,0,2.5,0.1,3.7
		c0.1,1,0.2,1.9,0.5,2.8c0.1,0.4,0.3,0.8,0.6,1.1C72.9,94.1,74.1,93.7,75,93.6z"/>
	<path d="M94.2,103.9c-1,0.3-2,0.5-3,0.5c-2.5,0.1-4.8-0.4-7-1.4c-1.1-0.5-2.2-1.1-3.3-1.7c-1-0.7-1.9-1.4-2.8-2.2
		c-1-0.9-1.8-1.9-2.6-2.9c-0.3-0.3-0.7-0.7-1.1-0.7c-0.5,0-0.9,0.3-1,0.8c0,0.3,0.1,0.5,0.3,0.8c0.9,1.4,2,2.6,3.3,3.7
		c0.9,0.9,2,1.6,3.1,2.1c0.2,0.1,0.4,0.2,0.7,0.4c3.2,1.5,6.6,2,10.2,1.6c1.3-0.1,2.6-0.6,3.7-1.1c0,0-0.2,0-0.2,0
		C94.4,103.9,94.3,103.9,94.2,103.9z"/>
	<path d="M97.6,76.9c-0.1-0.1-0.3-0.2-0.5-0.3c-0.5-0.2-1.1-0.3-1.6,0c-0.2,0.1-0.4,0.4-0.5,0.6c-0.1,0.3-0.1,0.7,0.1,1.1
		c0.3,1,1.2,1.9,2.1,2.4c0.2,0.1,0.4,0.2,0.7,0.2c0.4,0.1,0.8,0,1.1-0.2c1-0.6,0.4-2.1-0.2-2.8c-0.3-0.3-0.6-0.6-0.9-0.9
		C97.8,77,97.7,76.9,97.6,76.9z"/>
	<path d="M102.7,94.8c-0.7,0.7-1.6,1.3-2.7,1.6c-0.4,0.1-0.9,0.2-1.3,0.4c-0.4,0.2-0.8,0.5-0.9,0.9c-0.1,0.4,0.1,1,0.5,1.1
		c0.3,0.1,0.6,0,0.9-0.1c1.8-0.6,3.3-1.9,4.2-3.7c0.7-1.3,1.1-2.7,1.4-4.2c-0.1,0.1-0.1,0.2-0.1,0.3
		C104.3,92.7,103.6,93.9,102.7,94.8z"/>
	<path d="M72.6,84.7C72.6,84.7,72.6,84.8,72.6,84.7c0.1,0.7,0.7,0.8,1.2,0.5c0.3-0.2,0.5-0.5,0.6-0.8c0.1-0.4,0-0.8,0-1.1
		c-0.3-2.5,0.2-5.1,1.5-7.2c0.3-0.5,0.7-1,1.1-1.4c-0.4,0.4-0.9,0.7-1.3,1.1c-0.4,0.4-0.7,0.8-1.1,1.2c-0.7,0.9-1.1,1.9-1.5,2.9
		c-0.2,0.8-0.4,1.6-0.5,2.4C72.6,83.1,72.5,84,72.6,84.7z"/>
	<path d="M92.4,72.4c-1,0-1.9,0.3-2.7,0.8c-0.4,0.3-0.7,0.7-1,1.1c-0.3,0.5-0.5,1.1-0.5,1.6c0,0.1,0,0.2,0.1,0.4
		c0.1,0.3,0.4,0.6,0.8,0.7c0.3,0.1,0.7,0.1,1,0c0.3-0.1,0.7-0.2,0.9-0.4c0.5-0.4,0.6-1.1,0.9-1.6c0.5-0.7,1.3-1.1,2.2-1.1
		c2.3-0.1,4.6,1.5,6,3.2c1,1.2,1.7,2.6,1.8,4.2c0,0.6,0.4,1,0.8,1.4c0.2,0.1,0.3,0.2,0.5,0.1c0.2-0.1,0.2-0.3,0.1-0.4
		c-0.1-0.5-0.2-1-0.3-1.4c-0.7-2.2-2.1-4-3.8-5.5c-1.6-1.4-3.5-2.6-5.7-2.9C93.2,72.4,92.8,72.4,92.4,72.4z"/>
	<path d="M83.4,73.2C82.7,74,82.2,74.9,82,76c-0.3,1.4-0.3,2.9,0,4.4c0.2,0.9,0.5,1.9,1.2,2.5c0.6,0.5,1.4,0.5,2.1,0.3
		c0.5-0.1,1-0.4,1.6-0.6c0.4-0.2,0.9-0.3,1.3-0.5c0.2-0.1,0.5-0.1,0.8-0.2c0.2,0,0.5-0.1,0.7,0c0.2,0.1,0.3,0.3,0.4,0.5
		c1.4,1.9,3,3.4,5.1,4.5c2,1,4.7,1.6,6.7,0.1c0.6-0.4,1.3-1.1,1.2-2c0-0.6-0.3-1-0.8-1.3c-0.5-0.2-0.9-0.2-1.4,0.2
		c-0.4,0.4-1,0.6-1.6,0.6c-1.1,0.1-2.1-0.2-3.1-0.7c-1-0.5-1.9-1.2-2.6-2c-0.4-0.4-0.7-0.8-1-1.3c-0.3-0.4-0.5-0.9-0.9-1.3
		c-0.3-0.3-0.7-0.5-1.1-0.6c-0.5-0.1-1.1-0.1-1.7,0c-1.1,0.2-2.1,0.6-3.1,0.9c-0.2,0.1-0.4,0.1-0.5,0c-0.1-0.1-0.2-0.2-0.2-0.3
		c-0.3-1-0.4-2.1-0.2-3.1c0.2-1,0.6-2,1.2-2.8c0.5-0.5,1-1,1.7-1.3c0.3-0.1,0.6-0.2,0.9-0.3c0.3-0.1,0.6-0.2,0.9-0.2
		c0.7,0,1.3-0.1,2,0c0.3,0,0.6,0.1,0.9,0.2c0.5,0.1,1,0.3,1.6,0.4c-0.3-0.2-0.6-0.3-0.9-0.4c-2.1-0.7-4.3-1.1-6.5-0.6
		c-0.9,0.2-1.8,0.6-2.6,1.2C83.9,72.5,83.6,72.8,83.4,73.2z"/>
	<path d="M76.9,77.9c0.1,0.1,0.2,0.2,0.3,0.3c0.2,0.1,0.3,0.1,0.5,0.1c0.3,0,0.7-0.1,1-0.3c0.2-0.2,0.4-0.5,0.4-0.8
		c0.2-0.8,0.4-1.5,0.8-2.2c0.3-0.7,0.8-1.4,1.4-1.9c0.4-0.4,0.9-0.8,1.5-1.1c0.6-0.3,1.2-0.6,1.9-0.8c-0.7,0-1.5,0.3-2.2,0.5
		c-0.8,0.3-1.5,0.6-2.2,1c-1.5,0.9-2.6,2.3-3.2,3.9c-0.1,0.2-0.2,0.5-0.2,0.7c0,0.2-0.1,0.3,0,0.5C76.9,77.8,76.9,77.8,76.9,77.9z"
		/>
	<path d="M92.9,99.2c0.4,0.2,0.9,0.2,1.3,0.1c0.4-0.1,0.8-0.4,1.1-0.7c0.2-0.3,0.4-0.6,0.3-1c0-0.3-0.2-0.6-0.5-0.7
		c-0.5-0.3-1.2-0.3-1.8-0.1c-0.4,0.2-0.7,0.5-0.9,0.9c-0.1,0.3-0.1,0.8,0.1,1.1C92.6,99,92.7,99.1,92.9,99.2z"/>
	<path d="M85.5,87.1c0.3,0.7,0.9,1.3,1.7,1.3c0.2,0,0.5,0,0.7-0.1c0.7-0.2,1.2-0.9,1.1-1.7c-0.1-0.5-0.3-0.9-0.6-1.3
		c-0.3-0.3-0.6-0.5-1-0.6c-0.4-0.1-0.8-0.1-1.2,0.1c-0.3,0.1-0.5,0.3-0.7,0.6c-0.1,0.2-0.2,0.5-0.2,0.8
		C85.4,86.5,85.4,86.8,85.5,87.1z"/>
	<path d="M74.1,86.8c-0.4,0.1-0.8,0.5-0.8,1c-0.1,0.3,0,0.7,0.2,1s0.5,0.5,0.9,0.5c0.9,0,1.3-0.9,1-1.6c-0.2-0.4-0.5-0.8-1-0.8
		C74.3,86.7,74.2,86.7,74.1,86.8z"/>
</g>
</svg>
